HIERARCHY
ROOT hip
{
  OFFSET 0.0 0.0 0.0
  CHANNELS 6 Xposition Yposition Zposition Zrotation Yrotation Xrotation
  JOINT torso
  {
    OFFSET 0.0 0.0 0.0
    CHANNELS 3 Zrotation Xrotation Yrotation
    JOINT neck
    {
      OFFSET -8.600829999999974 327.7417449999999 60.895874000000276
      CHANNELS 3 Zrotation Xrotation Yrotation
      JOINT head
      {
        OFFSET 0.7211610000001087 266.848846 239.12060599999995
        CHANNELS 3 Zrotation Xrotation Yrotation
        End Site
        {
          OFFSET 0.0 0.0 0.0
        }
      }
    }
    JOINT left_collar
    {
      OFFSET -8.600829999999974 327.7417449999999 60.895874000000276
      CHANNELS 3 Zrotation Xrotation Yrotation
      JOINT left_upper_arm
      {
        OFFSET -122.29599000000002 -5.21875 31.800903999999946
        CHANNELS 3 Zrotation Xrotation Yrotation
        JOINT left_forearm
        {
          OFFSET -195.94708199999997 63.423126000000025 226.99352999999996
          CHANNELS 3 Zrotation Xrotation Yrotation
          JOINT left_hand
          {
            OFFSET -232.19226099999992 28.282164999999964 80.86950699999989
            CHANNELS 3 Zrotation Xrotation Yrotation
            End Site
            {
              OFFSET 0.0 0.0 0.0
            }
          }
        }
      }
    }
    JOINT right_collar
    {
      OFFSET -8.600829999999974 327.7417449999999 60.895874000000276
      CHANNELS 3 Zrotation Xrotation Yrotation
      JOINT right_upper_arm
      {
        OFFSET 168.41261300000002 -11.913361000000066 -9.389160000000174
        CHANNELS 3 Zrotation Xrotation Yrotation
        JOINT right_forearm
        {
          OFFSET 213.49279800000005 104.82293699999997 83.52258300000017
          CHANNELS 3 Zrotation Xrotation Yrotation
          JOINT right_hand
          {
            OFFSET 222.067185 62.005675999999994 -110.52026300000034
            CHANNELS 3 Zrotation Xrotation Yrotation
            End Site
            {
              OFFSET 0.0 0.0 0.0
            }
          }
        }
      }
    }
  }
}
MOTION
Frames: 13
Frame Time: 0.01
-465.48731331750486 133.38282843114052 393.0940521309791 5.5779870774949805 -14.837596110547421 -14.195817300194285 -0.16084242628518822 8.518063429611265 0.24524078103135122 -8.431061505417082 -3.640925213082262 7.619877185695094 0.0 0.0 0.0 -0.15160518118993171 -0.32764177055938476 7.089265918024409 58.20204075783591 47.44453876522467 19.30597891932532 51.412882364641426 25.834976975458517 -19.402843162735024 0.0 0.0 0.0 -6.277617670790729 -0.4453263508347627 -0.741425013971832 -78.27554003362383 21.684443541336332 -14.420739156077667 -57.6830217958561 -8.26821132869462 63.614918278551905 0.0 0.0 0.0
-464.99192871916966 133.39470137069245 393.1577886810544 5.567580232799819 -14.836892493176547 -14.288842668679234 -0.16394256430170426 8.530395446845173 0.2459075804362615 -8.440960266366687 -3.6971230409265092 7.629732054012832 0.0 0.0 0.0 -0.15737793159914693 -0.3262109117024814 7.025483704918531 57.917874192668386 47.21495200140983 19.38800641496975 51.32383371965329 25.887064451905204 -19.643384544192045 0.0 0.0 0.0 -6.309088864070418 -0.4477503159889665 -0.7449221872248675 -78.24473307529918 21.60669026187945 -14.688497632449053 -57.85405754288245 -8.294649639701634 63.44976543583534 0.0 0.0 0.0
-464.526504865721 133.40010773027444 393.2317667756593 5.560019545706499 -14.842993851189123 -14.372164781005864 -0.16824612352601026 8.546135422721417 0.2467967413971654 -8.451541463272576 -3.751516829791613 7.640175368173493 0.0 0.0 0.0 -0.16557220602443093 -0.3253493097642567 6.963915925955178 57.649527134975656 47.00864421526059 19.443376467432376 51.19841411250155 25.90973112451917 -19.86515477179779 0.0 0.0 0.0 -6.343407283082671 -0.4507419169959883 -0.7514614797962977 -78.22081620287804 21.53252816889891 -14.948258286023762 -58.032549640527144 -8.31902267259273 63.29022876402205 0.0 0.0 0.0
-464.0950317705349 133.39931438105017 393.3153786129083 5.555163600513364 -14.855958231641644 -14.445627001067654 -0.17394555552130056 8.565423407023605 0.24793262726037435 -8.462423854846437 -3.8041592153042525 7.650863617941101 0.0 0.0 0.0 -0.17591457832747964 -0.3250252056636117 6.905022321040091 57.39947482675463 46.82714024790981 19.471922583616397 51.0414305055575 25.904144780948148 -20.064812832616447 0.0 0.0 0.0 -6.379465332437797 -0.4541378130784944 -0.7602825800488632 -78.20311513437413 21.46226530307498 -15.198205487679708 -58.21321496688303 -8.341064792679045 63.139424356399104 0.0 0.0 0.0
-463.70088213321816 133.39265863539316 393.4078923864088 5.552791913804411 -14.87578585085259 -14.50923339662206 -0.18115304771645413 8.588368350382458 0.24932940259361064 -8.473234319072423 -3.8550476020247633 7.661459592639281 0.0 0.0 0.0 -0.18808354380210318 -0.325196223570658 6.849260229056711 57.169845299307234 46.67151502850017 19.47401606497868 50.85804749189648 25.871972516974207 -20.23945463002182 0.0 0.0 0.0 -6.4161692245665884 -0.45777522521140324 -0.7706309589425208 -78.19099666503494 21.39624902942416 -15.436432338682334 -58.3910761658752 -8.360637900248129 62.9997435771017 0.0 0.0 0.0
-463.3467510993205 133.38053682627853 393.50846353187654 5.552606456628686 -14.90240776488165 -14.563138603702201 -0.18989215256354477 8.61503432036495 0.2509897711137048 -8.483617120945572 -3.9041220134966714 7.671640735966034 0.0 0.0 0.0 -0.20171785717893334 -0.3258105790171574 6.797076710293126 56.96239533898973 46.54238326364243 19.45057588081667 50.653591986718766 25.815317418307725 -20.3867404339493 0.0 0.0 0.0 -6.45246960079077 -0.46149568061782964 -0.7817739816020643 -78.18388376991496 21.334837957235894 -15.661055260136143 -58.56156158818448 -8.377715154939434 62.87290844546079 0.0 0.0 0.0
-463.03461411986393 133.36339356529908 393.61614750573307 5.554234741923277 -14.935672984627033 -14.607633876719735 -0.20009173076927392 8.64542547067979 0.25290400378788086 -8.493242541673212 -3.951266333313151 7.681106983024176 0.0 0.0 0.0 -0.21642613195404847 -0.3268086193887926 6.748900809674746 56.77849325368898 46.43989754427396 19.403062212807615 50.43338461071851 25.73665203086201 -20.50499867249643 0.0 0.0 0.0 -6.4873892992252875 -0.46514847279612903 -0.7930146483470384 -78.1812625957015 21.2783749020181 -15.870318785982496 -58.72058460248067 -8.392365376435185 62.76003696550131 0.0 0.0 0.0
-462.76570425345284 133.34171209554552 393.72991370181575 5.557234505302036 -14.975335349600552 -14.643130240152201 -0.21158258279875766 8.679471107326064 0.25504934001367613 -8.501814692282077 -3.996312750871446 7.689587916609355 0.0 0.0 0.0 -0.23179733164182056 -0.32812464387537427 6.705136375657388 56.61910749295562 46.363753847937836 19.333453559851876 50.202606254516695 25.638752628034553 -20.59329940965595 0.0 0.0 0.0 -6.520047361020401 -0.4685937032131392 -0.8037025513174828 -78.18268216833711 21.227162043145498 -16.062686949287315 -58.864602422129494 -8.404737536099452 62.66171510943419 0.0 0.0 0.0
-462.54050956645756 133.31600600958066 393.8486601185713 5.5611000039094005 -15.021041604929213 -14.670139737094928 -0.22409709961037297 8.717012306525584 0.25738983544055505 -8.509078331124519 -4.039049098820606 7.696849074185246 0.0 0.0 0.0 -0.2474117541684762 -0.3296889331704233 6.666155741549273 56.4848002544745 46.313203575773585 19.244207830215927 49.966204148257795 25.524637553006684 -20.651493708329163 0.0 0.0 0.0 -6.549678540761625 -0.4717047926308831 -0.8132418422608696 -78.18774810033486 21.18143929226414 -16.23691846378161 -58.990654944729634 -8.415045004559298 62.578072501894106 0.0 0.0 0.0
-462.3587905241931 133.286812437101 393.9712284294433 5.565269948777034 -15.072322072991795 -14.689255750102015 -0.23727219057578 8.757791462399684 0.2598767099999165 -8.514824496243774 -4.07922865208591 7.702697226796633 0.0 0.0 0.0 -0.2628520980189418 -0.33142990485159257 6.632294435102391 56.375725406222585 46.287071541257504 19.138208301777137 49.72883764680707 25.397511850868785 -20.680217882857416 0.0 0.0 0.0 -6.575647802281912 -0.47437038387540453 -0.8210962352866519 -78.1961118178233 21.14136669726321 -16.392123713547466 -59.096384386939086 -8.423549483391271 62.50885924580867 0.0 0.0 0.0
-462.2196164804408 133.25468664132694 394.0964191734441 5.5691370726298945 -15.12858509224955 -14.70113326558929 -0.25065564513720723 8.801445896402189 0.2624492208448747 -8.518894762501263 -4.116581853267789 7.7069844479223955 0.0 0.0 0.0 -0.2777142068535113 -0.3332763010404363 6.603846937493131 56.29163031308232 46.2837796567962 19.01869570000427 49.49486032516832 25.260719157103296 -20.68086402698965 0.0 0.0 0.0 -6.597459524606093 -0.47649559801162283 -0.8267912768390544 -78.2074568561066 21.107011479231538 -16.527802361436866 -59.1800367580168 -8.43054478193597 62.453521756085415 0.0 0.0 0.0
-462.1214196307741 133.22019781922407 394.2230068567084 5.572059316721124 -15.189116058896659 -14.706469783632365 -0.26371596282647886 8.847506294089717 0.2650360510522083 -8.521183942893193 -4.150829341557914 7.709610796960647 0.0 0.0 0.0 -0.2916171227951464 -0.335159312552864 6.581063377097848 56.23186141824067 46.30137635703542 18.889187974846934 49.268332209164186 25.117700583761096 -20.655519958779845 0.0 0.0 0.0 -6.6147613922746284 -0.47800264726821634 -0.8299142824742537 -78.2214836483843 21.07834005626446 -16.643861157958508 -59.24044647280182 -8.436340778306096 62.411275890442134 0.0 0.0 0.0
-462.06206416073474 133.1839257937898 394.3497548242007 5.573372594787912 -15.25308149382082 -14.705987361532404 -0.2758555537260204 8.895400290655127 0.267557170364757 -8.521641074339799 -4.18169559700312 7.710525459528439 0.0 0.0 0.0 -0.30421213538462966 -0.33701454848944484 6.564146925460721 56.19537362852565 46.33757197584324 18.753389681710154 49.05305424404904 24.971959349336487 -20.606882821179273 0.0 0.0 0.0 -6.6273431814012485 -0.47883084769811285 -0.8301124651596249 -78.2378940146691 21.055215173729593 -16.74061223941494 -59.27700564476126 -8.441248018924004 62.38117605600896 0.0 0.0 0.0
